<svg version="1.1" id="Layer_1" xmlns="http://www.w3.org/2000/svg" xmlns:xlink="http://www.w3.org/1999/xlink" x="0px" y="0px"
	 width="100%" viewBox="0 0 400 400" enable-background="new 0 0 400 400" xml:space="preserve">
<path fill="#FFFFFF" opacity="1.000000" stroke="none" 
	d="
M229.000000,401.000000 
	C152.690353,401.000000 76.880722,401.000000 1.035541,401.000000 
	C1.035541,267.732025 1.035541,134.464050 1.035541,1.098030 
	C134.226257,1.098030 267.452606,1.098030 400.839478,1.098030 
	C400.839478,134.333176 400.839478,267.666565 400.839478,401.000000 
	C343.797455,401.000000 286.648712,401.000000 229.000000,401.000000 
M193.363983,80.902885 
	C193.123459,80.678810 192.990997,80.402863 193.053421,79.547432 
	C193.068771,79.369858 193.084106,79.192276 193.675659,78.918556 
	C193.453629,78.277580 193.231613,77.636604 192.434555,76.571732 
	C192.039139,74.905823 191.072479,73.132088 191.362503,71.595558 
	C192.049728,67.954720 189.459549,67.409538 187.217422,66.497101 
	C186.249786,66.103325 185.108307,66.136711 184.028412,65.316048 
	C184.019760,64.875984 184.011108,64.435921 184.459579,63.718678 
	C184.305710,63.159233 184.151840,62.599789 183.695282,61.423504 
	C177.798279,58.949860 171.901276,56.476219 165.398117,53.736950 
	C165.033890,52.426765 164.669662,51.116585 163.994812,48.689045 
	C161.662827,49.141445 158.242447,49.822689 154.814606,50.463947 
	C152.410324,50.913719 150.008514,51.413261 147.583389,51.707497 
	C142.071503,52.376247 136.540161,52.887711 131.034592,53.601021 
	C130.469604,53.674225 129.647736,54.644131 129.588562,55.259804 
	C129.277847,58.492073 129.174286,61.744259 128.304825,65.299576 
	C122.558685,66.353661 116.729179,67.083176 111.084694,68.533012 
	C100.998596,71.123741 91.024086,74.148933 80.999176,76.251328 
	C80.296120,75.351799 79.697289,73.786903 78.873543,73.657883 
	C72.212486,72.614532 70.147232,78.943169 65.179993,82.089188 
	C61.385132,82.801910 57.540333,83.320473 53.808998,84.280182 
	C49.817299,85.306854 45.932556,86.749359 41.733395,87.370682 
	C42.643337,85.429008 43.553280,83.487335 44.957245,80.491493 
	C41.541569,81.319176 37.660786,81.567856 34.626030,83.299362 
	C33.201038,84.112396 31.493956,87.922302 34.991802,90.671631 
	C35.006439,91.119606 35.021076,91.567574 35.007969,92.007607 
	C35.007969,92.007607 34.981026,91.997253 34.396000,92.073608 
	C34.071655,92.379478 33.747311,92.685356 33.422970,92.991234 
	C33.900253,93.330933 34.377541,93.670631 34.812267,94.829391 
	C34.856148,100.070396 34.937458,105.311386 34.938213,110.552399 
	C34.947491,174.811371 34.967518,239.070358 34.903755,303.329285 
	C34.898510,308.614594 34.160297,313.897400 34.088436,319.185791 
	C34.071732,320.415649 35.389973,321.663635 36.556923,323.042511 
	C36.556923,323.042511 37.016205,323.193390 37.346954,323.740356 
	C43.088280,324.989410 47.673088,322.439697 52.673008,319.062836 
	C53.092045,318.989532 53.511082,318.916260 54.372875,319.436951 
	C56.582790,320.153107 58.797546,320.880035 59.693897,317.116089 
	C60.116722,317.072296 60.539543,317.028503 61.535995,317.058746 
	C62.027916,316.804382 62.519836,316.549988 63.571960,316.074005 
	C63.965534,316.003967 64.359108,315.933899 65.534630,316.023041 
	C67.447235,316.024017 69.436935,316.368958 71.257843,315.960815 
	C76.509674,314.783691 81.721634,313.397034 86.877487,311.853027 
	C87.786385,311.580841 88.349052,310.152496 89.687958,309.057587 
	C90.117195,309.017181 90.546425,308.976746 91.467911,309.515594 
	C92.587982,309.529083 93.744133,309.731567 94.822334,309.525696 
	C102.539146,308.052460 110.240089,306.496124 118.890999,304.990662 
	C124.527657,304.834137 130.164322,304.677643 135.494278,304.529633 
	C133.016373,302.807404 131.009094,301.412292 129.512466,299.781769 
	C130.012360,299.240173 130.512253,298.698547 131.537552,297.935760 
	C131.912674,297.891327 132.287796,297.846863 133.170227,297.902100 
	C133.452957,297.726715 133.735672,297.551361 134.610458,297.161346 
	C135.021011,297.077576 135.431564,296.993805 136.370926,297.070374 
	C136.550812,297.109985 136.730713,297.149567 137.137665,297.896515 
	C139.235840,297.931305 141.403625,298.321930 143.417953,297.927917 
	C147.830109,297.064941 152.164902,295.805908 156.530396,294.705109 
	C159.320816,294.001434 162.317352,293.716156 164.847443,292.478577 
	C168.123260,290.876282 179.523987,294.074524 179.093460,297.251312 
	C178.301025,303.098572 182.360718,304.049103 185.327606,306.391357 
	C186.151993,308.861847 187.471344,310.967743 189.067230,312.837555 
	C191.016891,315.121918 193.183746,317.222656 195.284897,319.375275 
	C196.825470,320.953552 198.411484,322.487457 200.236221,324.632751 
	C199.461777,325.805939 198.687332,326.979126 198.251694,327.639069 
	C198.896454,328.446320 199.744781,329.426483 200.498230,330.474854 
	C201.239899,331.506866 201.693787,332.821838 202.607452,333.640442 
	C205.910599,336.599762 209.871933,338.984894 212.606155,342.375885 
	C215.635681,346.133148 217.591995,350.755798 219.327789,355.098358 
	C215.685623,357.328552 217.566849,359.778961 219.935287,360.439148 
	C221.996918,361.013794 224.622452,359.565430 227.829651,359.112549 
	C235.543854,359.035126 243.338623,359.595306 250.941269,358.634857 
	C255.319916,358.081726 259.408020,355.111115 263.574036,353.118164 
	C264.207062,352.815369 264.552673,351.911713 265.640198,351.025970 
	C266.076111,350.967560 266.512024,350.909149 267.415558,351.458862 
	C269.346039,351.514130 271.340576,351.909576 273.194824,351.560211 
	C278.528198,350.555359 283.598175,349.367310 288.797668,346.964844 
	C296.760498,343.285553 306.094421,342.639069 314.777863,340.435211 
	C323.305878,338.270782 331.738556,335.732880 340.235168,333.440887 
	C342.390442,332.859528 344.695068,332.798615 346.817505,332.135254 
	C351.778717,330.584656 356.563019,328.236694 361.620789,327.289337 
	C367.002838,326.281281 368.926788,325.241852 368.924377,319.896484 
	C368.922455,315.606201 368.067291,311.316437 368.063202,307.026001 
	C368.002991,244.067215 368.007874,181.108368 368.041260,118.149544 
	C368.045166,110.753929 368.367218,103.358566 368.383667,95.962730 
	C368.385834,94.991592 367.441956,94.018356 366.943481,93.075562 
	C366.943481,93.075562 366.910919,93.076958 366.886414,92.376373 
	C365.122192,91.857605 363.292267,90.758942 361.608490,90.949806 
	C358.757690,91.272964 355.873230,92.122650 353.232910,93.277008 
	C349.688904,94.826447 346.363586,96.876068 342.338898,98.969620 
	C341.906067,99.031868 341.473236,99.094124 340.613098,98.581116 
	C338.366821,98.787804 335.977936,98.579582 333.905518,99.292000 
	C330.185760,100.570717 325.782166,100.373535 322.623840,104.097206 
	C322.623840,104.097206 322.195709,104.110306 321.404572,103.981781 
	C320.605042,103.976318 319.805511,103.970856 318.977753,103.181145 
	C317.076080,100.716492 309.124359,98.670013 306.880035,100.079666 
	C306.465607,100.339973 305.948273,100.587578 305.727966,100.980850 
	C304.441528,103.277321 303.229401,105.615402 301.328674,107.965599 
	C300.886200,107.977669 300.443695,107.989738 299.596252,107.443848 
	C294.405670,105.413155 290.134155,107.225723 288.146332,111.990021 
	C282.102448,113.339371 276.058533,114.688721 269.585266,115.446602 
	C265.170532,112.297852 260.449371,112.620949 255.908218,113.397156 
	C257.801208,115.483109 259.405121,117.250534 260.272156,119.034599 
	C258.851379,119.335938 257.430603,119.637276 255.882034,119.238205 
	C252.335312,117.827988 248.879166,115.953857 245.197449,115.235130 
	C243.717957,114.946312 241.758682,117.219856 239.984924,118.271797 
	C239.432053,118.599678 238.658554,118.606972 238.178055,118.997337 
	C234.437805,122.035965 230.757385,118.513268 227.027878,118.874672 
	C226.215393,118.953407 225.280609,117.769928 224.402145,117.167786 
	C225.336441,116.452148 226.176361,115.380653 227.226578,115.102112 
	C228.911652,114.655197 230.735931,114.733086 232.501373,114.589195 
	C232.478760,114.061043 232.456131,113.532898 232.433502,113.004745 
	C229.897675,112.856003 227.179276,113.226402 224.875961,112.416451 
	C222.441010,111.560219 220.401367,109.579773 218.189056,108.090401 
	C219.498596,106.960045 220.873383,105.894028 222.083984,104.666107 
	C222.537247,104.206375 222.608231,103.369736 222.539139,103.556976 
	C219.921249,102.605659 217.287613,102.330963 215.661240,100.906342 
	C212.840332,98.435341 208.351074,97.423363 207.716736,92.706093 
	C207.670547,92.362671 205.907486,92.250114 204.467163,91.712074 
	C203.978729,91.144119 203.490280,90.576164 203.015701,89.263794 
	C203.974548,88.023827 205.324051,86.914024 205.791748,85.510391 
	C206.355652,83.818031 206.171066,81.876251 206.310486,80.042442 
	C204.877197,80.160011 203.442505,80.262970 202.010941,80.398666 
	C200.001877,80.589119 197.995148,80.803917 195.253052,81.005478 
	C194.764114,81.038528 194.275162,81.071579 193.363983,80.902885 
M305.463318,348.285583 
	C306.038788,348.396759 306.614288,348.507965 307.189728,348.619141 
	C307.194855,348.211426 307.199982,347.803711 307.205109,347.395996 
	C306.626984,347.493042 306.048889,347.590057 305.463318,348.285583 
M158.466293,300.284943 
	C159.039993,300.395844 159.613693,300.506744 160.187393,300.617645 
	C160.192596,300.211182 160.197800,299.804749 160.203003,299.398285 
	C159.626572,299.494965 159.050125,299.591614 158.466293,300.284943 
M192.266510,65.820648 
	C192.376892,65.974937 192.487259,66.129219 192.597656,66.283508 
	C192.575989,66.068604 192.554321,65.853706 192.266510,65.820648 
M194.482437,328.592072 
	C194.482437,328.592072 194.412033,328.475464 194.482437,328.592072 
M36.430019,325.480164 
	C36.430019,325.480164 36.522087,325.427124 36.430019,325.480164 
M349.516785,91.423691 
	C349.516785,91.423691 349.575348,91.523697 349.516785,91.423691 
z"/>
<path fill="#C53235" opacity="1.000000" stroke="none" 
	d="
M266.947937,350.850739 
	C266.512024,350.909149 266.076111,350.967560 264.951782,351.101837 
	C255.759521,353.372894 247.277298,355.656708 238.745010,357.735046 
	C232.014679,359.374390 226.284683,357.997040 222.211273,351.814636 
	C219.208984,347.257935 215.953644,342.867981 212.980286,338.094177 
	C213.776672,337.515839 214.403839,337.247009 215.309372,337.189240 
	C218.992950,342.349152 222.344482,347.336700 225.854706,352.209900 
	C226.459351,353.049347 227.751602,353.921570 228.704132,353.897644 
	C235.473251,353.727692 242.236633,353.328583 249.396820,352.954956 
	C255.202194,351.280121 260.612579,349.652771 266.402740,347.979065 
	C276.485870,345.297394 286.189514,342.663208 295.892426,340.026337 
	C301.615326,338.471100 307.346649,336.945679 313.054871,335.338135 
	C315.494904,334.650970 317.865845,333.719818 320.303192,333.021698 
	C324.390411,331.850952 328.509064,330.790588 332.607452,329.658234 
	C334.465973,329.144684 336.297028,328.530670 338.158875,328.030365 
	C344.437714,326.343018 350.724823,324.686249 357.396240,323.017853 
	C359.204895,322.685730 360.626038,322.353577 362.379639,321.830383 
	C363.119415,319.944611 363.888062,318.243744 363.859497,316.556396 
	C363.798157,312.933960 363.063324,309.318634 363.060394,305.700043 
	C363.006378,238.484451 363.019531,171.268799 363.018311,104.053154 
	C363.018280,102.722153 363.024109,101.391060 363.010712,100.060173 
	C362.978485,96.861847 361.638672,96.146835 358.585938,97.962273 
	C357.124268,97.979614 356.060913,97.989532 354.623962,98.064835 
	C347.826508,99.636307 341.832489,102.291634 335.168121,103.479088 
	C323.136749,105.622810 311.429413,109.677307 299.675873,113.228897 
	C296.335541,114.238251 293.095337,117.894592 290.170288,117.519684 
	C282.037720,116.477356 275.023315,120.143013 267.548004,121.520531 
	C257.271118,123.414314 247.310394,126.961449 237.109756,129.354980 
	C231.086517,130.768295 225.723831,129.185699 221.813522,123.822639 
	C221.083954,122.822014 219.300308,122.589935 218.001556,122.001587 
	C218.000000,122.000000 217.996826,121.997009 218.005737,121.612488 
	C217.184357,119.569702 216.558563,117.763977 215.487778,116.279160 
	C211.227158,110.371048 206.717148,104.639519 202.576584,98.650993 
	C201.783951,97.504570 202.243927,95.492073 202.421967,94.021492 
	C204.085129,95.835739 205.452316,97.507637 206.872223,99.078743 
	C206.924942,98.977943 206.800323,99.169815 206.874893,99.504791 
	C209.613129,103.251740 212.276794,106.663704 214.966583,110.038864 
	C214.992722,110.002052 214.918854,110.054001 214.944229,110.371941 
	C215.639267,111.469887 216.308929,112.249893 216.989990,113.015244 
	C217.001419,113.000595 216.967880,113.015999 217.009735,113.281097 
	C217.322372,113.758354 217.593140,113.970505 217.898087,114.114838 
	C217.932266,114.047020 217.817383,114.146370 217.877502,114.464775 
	C218.892197,115.920723 219.846802,117.058273 220.847961,118.085640 
	C220.894516,117.975464 220.780243,118.187164 220.831390,118.499359 
	C221.553589,119.581009 222.224625,120.350464 222.931702,121.057976 
	C222.967743,120.996033 222.870865,121.101814 222.948120,121.436218 
	C225.860382,125.961159 229.918579,128.415955 234.814636,127.308594 
	C245.366516,124.922035 255.775436,121.903412 266.445923,119.150726 
	C266.649017,119.158005 266.987427,118.932083 267.389160,118.971298 
	C282.268311,115.047821 296.745758,111.085129 311.434326,107.112610 
	C311.645477,107.102791 311.997894,106.869293 312.387329,106.912918 
	C315.916412,106.007797 319.056061,105.059052 322.195709,104.110306 
	C322.195709,104.110306 322.623840,104.097206 323.208618,104.057922 
	C329.542389,102.397888 335.291412,100.777138 341.040405,99.156372 
	C341.473236,99.094124 341.906067,99.031868 343.026337,98.882889 
	C351.446167,96.889755 359.178528,94.983360 366.910919,93.076965 
	C366.910919,93.076958 366.943481,93.075562 366.936676,93.525612 
	C366.951050,169.071167 366.931854,244.166763 367.104309,319.261932 
	C367.113617,323.316193 365.286072,324.290680 362.094055,325.127777 
	C344.096558,329.847687 326.117920,334.641052 308.156403,339.496307 
	C294.402222,343.214355 280.682800,347.061188 266.947937,350.850739 
z"/>
<path fill="#BB4748" opacity="1.000000" stroke="none" 
	d="
M53.930122,318.842957 
	C53.511082,318.916260 53.092045,318.989532 51.983955,319.109619 
	C46.535336,320.502045 41.775772,321.847717 37.016205,323.193390 
	C37.016205,323.193390 36.556923,323.042511 36.324673,322.512451 
	C36.059608,265.833649 36.012630,209.684875 36.001423,153.536102 
	C35.997330,133.043716 36.078297,112.551315 36.468060,91.924683 
	C46.899395,88.906906 56.983128,86.023369 67.392365,83.129616 
	C68.133408,82.997643 68.548958,82.875885 69.320938,82.794617 
	C71.238617,82.275566 72.799873,81.716034 74.535973,81.167770 
	C74.710823,81.179039 74.986465,80.962677 75.390434,80.986206 
	C82.348991,79.318466 88.923828,77.701462 95.454201,75.921341 
	C112.014542,71.407173 128.554947,66.819862 145.472168,62.218296 
	C146.563461,62.004917 147.285919,61.835072 148.262192,61.696854 
	C148.771072,61.528202 149.026138,61.327927 149.572083,61.113815 
	C150.227615,60.970192 150.592255,60.840401 151.339554,60.765518 
	C156.501099,59.643578 161.248642,58.312885 166.067184,57.330559 
	C171.543427,56.214161 176.122787,57.906651 179.601532,62.401524 
	C180.596558,63.687210 181.752151,64.848633 182.877899,66.353943 
	C183.032822,67.011192 183.143951,67.381523 183.136200,67.867210 
	C183.017349,67.982559 182.779236,68.212822 182.465424,68.102570 
	C180.537842,66.576393 178.820374,65.261124 177.330063,63.725403 
	C173.099899,59.366360 168.437424,57.914333 162.459229,60.167366 
	C157.228592,62.138660 151.741013,63.464958 146.313705,64.870636 
	C131.338715,68.749184 116.325294,72.479256 101.348053,76.349266 
	C92.748352,78.571373 84.164833,80.864563 75.619682,83.286797 
	C68.343903,85.349220 61.133430,87.642052 53.481255,89.863449 
	C49.044754,90.931572 45.021065,91.969193 40.612244,93.003761 
	C39.490368,94.335617 38.753624,95.670532 38.000683,97.471001 
	C37.985172,102.624763 37.985859,107.312988 37.817780,112.382668 
	C37.446598,114.393883 37.068012,116.023544 37.067204,117.653397 
	C37.037033,178.497803 37.033058,239.342224 37.081245,300.186615 
	C37.082779,302.125916 37.668564,304.064789 37.977009,306.402435 
	C37.985287,307.863922 37.998543,308.926788 37.995308,310.445740 
	C37.978817,313.778870 37.978817,316.655914 37.978817,320.550385 
	C41.556355,319.536865 44.281654,318.764771 47.334679,317.996765 
	C48.098480,317.980591 48.534561,317.960327 49.361450,317.920166 
	C51.819031,317.583893 53.885803,317.267517 56.069946,317.095703 
	C56.187317,317.240204 56.420261,317.530731 56.175190,317.688538 
	C55.263454,318.178558 54.596786,318.510742 53.930122,318.842957 
z"/>
<path fill="#FCEBEA" opacity="1.000000" stroke="none" 
	d="
M267.181763,351.154785 
	C280.682800,347.061188 294.402222,343.214355 308.156403,339.496307 
	C326.117920,334.641052 344.096558,329.847687 362.094055,325.127777 
	C365.286072,324.290680 367.113617,323.316193 367.104309,319.261932 
	C366.931854,244.166763 366.951050,169.071167 366.933044,93.510880 
	C367.441956,94.018356 368.385834,94.991592 368.383667,95.962730 
	C368.367218,103.358566 368.045166,110.753929 368.041260,118.149544 
	C368.007874,181.108368 368.002991,244.067215 368.063202,307.026001 
	C368.067291,311.316437 368.922455,315.606201 368.924377,319.896484 
	C368.926788,325.241852 367.002838,326.281281 361.620789,327.289337 
	C356.563019,328.236694 351.778717,330.584656 346.817505,332.135254 
	C344.695068,332.798615 342.390442,332.859528 340.235168,333.440887 
	C331.738556,335.732880 323.305878,338.270782 314.777863,340.435211 
	C306.094421,342.639069 296.760498,343.285553 288.797668,346.964844 
	C283.598175,349.367310 278.528198,350.555359 273.194824,351.560211 
	C271.340576,351.909576 269.346039,351.514130 267.181763,351.154785 
z"/>
<path fill="#FCFBFB" opacity="1.000000" stroke="none" 
	d="
M148.008377,61.665230 
	C147.285919,61.835072 146.563461,62.004917 145.245529,61.895760 
	C142.330093,61.821831 139.954346,61.781372 137.704010,62.292820 
	C134.750519,62.964085 131.895920,64.070351 128.998779,64.989525 
	C129.174286,61.744259 129.277847,58.492073 129.588562,55.259804 
	C129.647736,54.644131 130.469604,53.674225 131.034592,53.601021 
	C136.540161,52.887711 142.071503,52.376247 147.583389,51.707497 
	C150.008514,51.413261 152.410324,50.913719 154.814606,50.463947 
	C158.242447,49.822689 161.662827,49.141445 163.994812,48.689045 
	C164.669662,51.116585 165.033890,52.426765 165.525635,54.195152 
	C161.927979,55.768501 158.156021,56.753586 154.502304,58.067448 
	C153.175278,58.544643 152.130478,59.806675 150.956909,60.710609 
	C150.592255,60.840401 150.227615,60.970192 149.325470,61.103302 
	C148.446060,61.178352 148.186188,61.364555 148.008377,61.665230 
z"/>
<path fill="#FAFBF8" opacity="1.000000" stroke="none" 
	d="
M204.942657,92.030212 
	C205.907486,92.250114 207.670547,92.362671 207.716736,92.706093 
	C208.351074,97.423363 212.840332,98.435341 215.661240,100.906342 
	C217.287613,102.330963 219.921249,102.605659 222.539139,103.556976 
	C222.608231,103.369736 222.537247,104.206375 222.083984,104.666107 
	C220.873383,105.894028 219.498596,106.960045 218.189056,108.090401 
	C220.401367,109.579773 222.441010,111.560219 224.875961,112.416451 
	C227.179276,113.226402 229.897675,112.856003 232.433502,113.004745 
	C232.456131,113.532898 232.478760,114.061043 232.501373,114.589195 
	C230.735931,114.733086 228.911652,114.655197 227.226578,115.102112 
	C226.176361,115.380653 225.336441,116.452148 224.402145,117.167786 
	C225.280609,117.769928 226.215393,118.953407 227.027878,118.874672 
	C230.757385,118.513268 234.437805,122.035965 238.178055,118.997337 
	C238.658554,118.606972 239.432053,118.599678 239.984924,118.271797 
	C241.758682,117.219856 243.717957,114.946312 245.197449,115.235130 
	C248.879166,115.953857 252.335312,117.827988 255.558182,119.619980 
	C250.745071,121.336769 246.301956,122.863533 241.754776,123.957932 
	C236.155853,125.305473 230.461639,126.572929 225.689209,121.561539 
	C225.165894,121.012016 223.829910,121.236389 222.870865,121.101814 
	C222.870865,121.101814 222.967743,120.996033 222.975983,120.681259 
	C222.249557,119.640053 221.514908,118.913605 220.780243,118.187164 
	C220.780243,118.187164 220.894516,117.975464 220.912018,117.703262 
	C219.892151,116.336159 218.854767,115.241264 217.817383,114.146370 
	C217.817383,114.146370 217.932266,114.047020 217.864243,113.847397 
	C217.520111,113.437187 217.243988,113.226593 216.967880,113.015999 
	C216.967880,113.015999 217.001419,113.000595 217.007446,112.652222 
	C216.315277,111.553909 215.617065,110.803955 214.918854,110.054001 
	C214.918854,110.054001 214.992722,110.002052 214.996338,109.653534 
	C213.403549,105.006905 212.525620,100.127541 206.800323,99.169815 
	C206.800323,99.169815 206.924942,98.977943 206.933228,98.694351 
	C206.275208,96.283913 205.608932,94.157066 204.942657,92.030212 
M243.569046,121.295959 
	C243.296143,121.010208 243.023224,120.724457 242.750305,120.438713 
	C242.631958,120.551765 242.513626,120.664810 242.395279,120.777870 
	C242.668472,121.063560 242.941666,121.349251 243.569046,121.295959 
z"/>
<path fill="#FAEEEC" opacity="1.000000" stroke="none" 
	d="
M199.977264,324.041138 
	C198.411484,322.487457 196.825470,320.953552 195.284897,319.375275 
	C193.183746,317.222656 191.016891,315.121918 189.067230,312.837555 
	C187.471344,310.967743 186.151993,308.861847 185.327606,306.391357 
	C182.360718,304.049103 178.301025,303.098572 179.093460,297.251312 
	C179.523987,294.074524 168.123260,290.876282 164.847443,292.478577 
	C162.317352,293.716156 159.320816,294.001434 156.530396,294.705109 
	C152.164902,295.805908 147.830109,297.064941 143.417953,297.927917 
	C141.403625,298.321930 139.235840,297.931305 137.325378,297.467987 
	C138.005630,296.717163 138.498184,296.394867 139.324371,295.889404 
	C148.970566,293.263763 158.283096,290.821259 167.963989,288.401367 
	C173.056168,287.743042 176.763596,289.634583 179.463348,293.310486 
	C186.406479,302.763977 193.199677,312.327576 200.035248,322.212402 
	C200.004211,323.065430 199.990738,323.553284 199.977264,324.041138 
z"/>
<path fill="#FCDCD8" opacity="1.000000" stroke="none" 
	d="
M36.120461,92.058922 
	C36.078297,112.551315 35.997330,133.043716 36.001423,153.536102 
	C36.012630,209.684875 36.059608,265.833649 36.093201,322.442841 
	C35.389973,321.663635 34.071732,320.415649 34.088436,319.185791 
	C34.160297,313.897400 34.898510,308.614594 34.903755,303.329285 
	C34.967518,239.070358 34.947491,174.811371 34.938213,110.552399 
	C34.937458,105.311386 34.856148,100.070396 34.884117,94.086609 
	C34.964321,92.894974 34.972672,92.446114 34.981026,91.997253 
	C34.981026,91.997253 35.007969,92.007607 35.293053,92.016495 
	C35.758915,92.036560 35.939686,92.047737 36.120461,92.058922 
z"/>
<path fill="#FCEBEA" opacity="1.000000" stroke="none" 
	d="
M200.106750,324.336945 
	C199.990738,323.553284 200.004211,323.065430 200.318268,322.400757 
	C204.682907,327.617218 208.746994,333.010468 212.811066,338.403748 
	C215.953644,342.867981 219.208984,347.257935 222.211273,351.814636 
	C226.284683,357.997040 232.014679,359.374390 238.745010,357.735046 
	C247.277298,355.656708 255.759521,353.372894 264.647278,351.231812 
	C264.552673,351.911713 264.207062,352.815369 263.574036,353.118164 
	C259.408020,355.111115 255.319916,358.081726 250.941269,358.634857 
	C243.338623,359.595306 235.543854,359.035126 227.098724,358.916260 
	C224.250412,357.480560 222.133026,356.241089 220.015656,355.001617 
	C217.591995,350.755798 215.635681,346.133148 212.606155,342.375885 
	C209.871933,338.984894 205.910599,336.599762 202.607452,333.640442 
	C201.693787,332.821838 201.239899,331.506866 200.498230,330.474854 
	C199.744781,329.426483 198.896454,328.446320 198.251694,327.639069 
	C198.687332,326.979126 199.461777,325.805939 200.106750,324.336945 
z"/>
<path fill="#BB4748" opacity="1.000000" stroke="none" 
	d="
M167.595642,288.378723 
	C158.283096,290.821259 148.970566,293.263763 138.980347,295.847534 
	C137.482483,296.295868 136.662292,296.602966 135.842117,296.910034 
	C135.431564,296.993805 135.021011,297.077576 134.059753,297.214844 
	C133.226990,297.446381 132.944946,297.624390 132.662903,297.802429 
	C132.287796,297.846863 131.912674,297.891327 130.890640,297.984680 
	C127.138535,298.958740 124.033333,299.883820 120.605652,300.831543 
	C119.872917,300.981415 119.462662,301.108673 118.671471,301.226013 
	C109.185570,303.789520 100.080620,306.362946 90.975662,308.936340 
	C90.546425,308.976746 90.117195,309.017181 88.997139,309.122375 
	C80.455109,311.412720 72.603897,313.638306 64.752686,315.863861 
	C64.359108,315.933899 63.965534,316.003967 63.002731,316.144348 
	C61.943123,316.471375 61.452747,316.728027 60.962372,316.984680 
	C60.539543,317.028503 60.116722,317.072296 59.056801,317.160583 
	C57.753223,317.313629 57.086742,317.422180 56.420261,317.530731 
	C56.420261,317.530731 56.187317,317.240204 56.106342,316.789398 
	C56.071423,315.930023 56.117477,315.521484 56.469250,315.111572 
	C57.182220,315.093262 57.589474,315.076263 58.415092,315.059509 
	C62.895802,314.053680 66.958145,313.047607 71.349304,312.034790 
	C72.115807,312.001831 72.553490,311.975555 73.222122,311.865814 
	C73.743179,311.602661 73.948769,311.353302 74.432053,310.995697 
	C76.903114,310.029968 79.011978,309.102814 81.456932,308.182678 
	C83.873894,307.817047 85.954765,307.444427 88.432907,307.060608 
	C94.215050,305.697021 99.599907,304.344635 105.285957,302.983704 
	C106.059097,302.651794 106.531052,302.328369 107.001503,302.002472 
	C107.000000,302.000000 107.003571,302.004639 107.369606,302.011017 
	C108.837395,301.694275 109.939148,301.371155 111.387726,301.039368 
	C112.821899,300.692139 113.909233,300.353485 115.335625,300.019287 
	C116.456070,299.693970 117.237465,299.364258 118.390160,299.031006 
	C119.503380,298.997406 120.245285,298.967316 121.287491,298.937744 
	C122.068916,298.632965 122.550056,298.327728 123.385536,297.871582 
	C130.490295,296.140228 137.240738,294.559814 144.338989,292.849579 
	C147.824356,291.506409 150.961914,290.293060 154.521057,289.073334 
	C158.287125,288.408264 161.631607,287.749573 165.233505,287.355957 
	C166.192490,287.873566 166.894058,288.126160 167.595642,288.378723 
z"/>
<path fill="#FBE6E3" opacity="1.000000" stroke="none" 
	d="
M128.651794,65.144547 
	C131.895920,64.070351 134.750519,62.964085 137.704010,62.292820 
	C139.954346,61.781372 142.330093,61.821831 144.876694,61.939293 
	C128.554947,66.819862 112.014542,71.407173 95.454201,75.921341 
	C88.923828,77.701462 82.348991,79.318466 75.432571,80.628143 
	C77.048141,79.161850 79.025536,78.077164 81.002930,76.992485 
	C91.024086,74.148933 100.998596,71.123741 111.084694,68.533012 
	C116.729179,67.083176 122.558685,66.353661 128.651794,65.144547 
z"/>
<path fill="#FBDEDB" opacity="1.000000" stroke="none" 
	d="
M222.948120,121.436218 
	C223.829910,121.236389 225.165894,121.012016 225.689209,121.561539 
	C230.461639,126.572929 236.155853,125.305473 241.754776,123.957932 
	C246.301956,122.863533 250.745071,121.336769 255.622070,119.970184 
	C257.430603,119.637276 258.851379,119.335938 261.076080,119.028366 
	C263.334290,119.062576 264.788574,119.103020 266.242859,119.143448 
	C255.775436,121.903412 245.366516,124.922035 234.814636,127.308594 
	C229.918579,128.415955 225.860382,125.961159 222.948120,121.436218 
z"/>
<path fill="#FBDEDB" opacity="1.000000" stroke="none" 
	d="
M311.223206,107.122437 
	C296.745758,111.085129 282.268311,115.047821 267.432007,118.648224 
	C268.053619,117.536652 269.034149,116.787361 270.014648,116.038071 
	C276.058533,114.688721 282.102448,113.339371 288.913177,111.836472 
	C293.120422,110.455887 296.560822,109.228851 300.001221,108.001816 
	C300.443695,107.989738 300.886200,107.977669 302.022827,107.939178 
	C305.552399,107.649315 308.387787,107.385872 311.223206,107.122437 
z"/>
<path fill="#FBE6E3" opacity="1.000000" stroke="none" 
	d="
M151.339554,60.765518 
	C152.130478,59.806675 153.175278,58.544643 154.502304,58.067448 
	C158.156021,56.753586 161.927979,55.768501 165.828705,54.327965 
	C171.901276,56.476219 177.798279,58.949860 183.846848,62.057335 
	C183.999756,63.126060 184.001099,63.560955 184.002441,63.995853 
	C184.011108,64.435921 184.019760,64.875984 183.733795,65.667236 
	C183.237503,66.034630 183.035812,66.050835 182.834122,66.067032 
	C181.752151,64.848633 180.596558,63.687210 179.601532,62.401524 
	C176.122787,57.906651 171.543427,56.214161 166.067184,57.330559 
	C161.248642,58.312885 156.501099,59.643578 151.339554,60.765518 
z"/>
<path fill="#FAFBF8" opacity="1.000000" stroke="none" 
	d="
M311.434326,107.112610 
	C308.387787,107.385872 305.552399,107.649315 302.354553,107.926094 
	C303.229401,105.615402 304.441528,103.277321 305.727966,100.980850 
	C305.948273,100.587578 306.465607,100.339973 306.880035,100.079666 
	C309.124359,98.670013 317.076080,100.716492 318.602722,103.591934 
	C316.151123,104.958252 314.074493,105.913773 311.997894,106.869293 
	C311.997894,106.869293 311.645477,107.102791 311.434326,107.112610 
z"/>
<path fill="#FBFAF9" opacity="1.000000" stroke="none" 
	d="
M195.987396,81.008316 
	C197.995148,80.803917 200.001877,80.589119 202.010941,80.398666 
	C203.442505,80.262970 204.877197,80.160011 206.310486,80.042442 
	C206.171066,81.876251 206.355652,83.818031 205.791748,85.510391 
	C205.324051,86.914024 203.974548,88.023827 202.793610,89.747124 
	C202.300171,90.425369 202.108292,90.680153 201.742050,90.992599 
	C201.319046,90.998581 201.149887,91.006760 200.988831,91.011871 
	C200.996918,91.008812 200.976578,91.024429 200.922607,90.807556 
	C200.728989,90.309525 200.512207,90.113716 200.008133,89.819702 
	C199.515137,89.160156 199.232330,88.684181 198.972549,87.873512 
	C198.361206,86.927757 197.726837,86.316696 196.912415,85.663177 
	C196.732346,85.620720 196.367920,85.556801 196.318237,85.297913 
	C196.174469,84.702934 196.080383,84.366829 196.002563,83.652908 
	C196.008362,82.519501 195.997879,81.763908 195.987396,81.008316 
z"/>
<path fill="#FBFBF8" opacity="1.000000" stroke="none" 
	d="
M34.987785,89.999619 
	C31.493956,87.922302 33.201038,84.112396 34.626030,83.299362 
	C37.660786,81.567856 41.541569,81.319176 44.957245,80.491493 
	C43.553280,83.487335 42.643337,85.429008 41.627655,87.964264 
	C39.343872,89.038445 37.165829,89.519035 34.987785,89.999619 
z"/>
<path fill="#FBE6E3" opacity="1.000000" stroke="none" 
	d="
M34.989792,90.335625 
	C37.165829,89.519035 39.343872,89.038445 41.761524,88.284111 
	C45.932556,86.749359 49.817299,85.306854 53.808998,84.280182 
	C57.540333,83.320473 61.385132,82.801910 65.825211,82.166389 
	C66.669243,82.542336 66.868057,82.841087 67.066864,83.139832 
	C56.983128,86.023369 46.899395,88.906906 36.468063,91.924683 
	C35.939686,92.047737 35.758915,92.036560 35.306927,92.020470 
	C35.021076,91.567574 35.006439,91.119606 34.989792,90.335625 
z"/>
<path fill="#FCDCD8" opacity="1.000000" stroke="none" 
	d="
M91.221786,309.225952 
	C100.080620,306.362946 109.185570,303.789520 118.658539,301.555817 
	C118.666389,302.919067 118.306236,303.942627 117.946083,304.966187 
	C110.240089,306.496124 102.539146,308.052460 94.822334,309.525696 
	C93.744133,309.731567 92.587982,309.529083 91.221786,309.225952 
z"/>
<path fill="#FBDEDB" opacity="1.000000" stroke="none" 
	d="
M366.898682,92.726669 
	C359.178528,94.983360 351.446167,96.889755 343.329102,98.753555 
	C346.363586,96.876068 349.688904,94.826447 353.232910,93.277008 
	C355.873230,92.122650 358.757690,91.272964 361.608490,90.949806 
	C363.292267,90.758942 365.122192,91.857605 366.898682,92.726669 
z"/>
<path fill="#FBFBF8" opacity="1.000000" stroke="none" 
	d="
M67.392365,83.129616 
	C66.868057,82.841087 66.669243,82.542336 66.232643,82.108673 
	C70.147232,78.943169 72.212486,72.614532 78.873543,73.657883 
	C79.697289,73.786903 80.296120,75.351799 81.001053,76.621902 
	C79.025536,78.077164 77.048141,79.161850 75.028610,80.604607 
	C74.986465,80.962677 74.710823,81.179039 74.123238,81.108734 
	C72.011932,81.610321 70.488220,82.182220 68.964508,82.754120 
	C68.548958,82.875885 68.133408,82.997643 67.392365,83.129616 
z"/>
<path fill="#FAFBF8" opacity="1.000000" stroke="none" 
	d="
M269.799957,115.742340 
	C269.034149,116.787361 268.053619,117.536652 267.030273,118.609009 
	C266.987427,118.932083 266.649017,119.158005 266.445923,119.150726 
	C264.788574,119.103020 263.334290,119.062576 261.444519,119.020050 
	C259.405121,117.250534 257.801208,115.483109 255.908218,113.397156 
	C260.449371,112.620949 265.170532,112.297852 269.799957,115.742340 
z"/>
<path fill="#FBFBF8" opacity="1.000000" stroke="none" 
	d="
M118.418541,304.978424 
	C118.306236,303.942627 118.666389,302.919067 119.039474,301.565704 
	C119.462662,301.108673 119.872917,300.981415 120.812393,301.125580 
	C123.895020,300.937042 126.448425,300.477112 129.001831,300.017181 
	C131.009094,301.412292 133.016373,302.807404 135.494278,304.529633 
	C130.164322,304.677643 124.527657,304.834137 118.418541,304.978424 
z"/>
<path fill="#FAE7E3" opacity="1.000000" stroke="none" 
	d="
M182.877899,66.353943 
	C183.035812,66.050835 183.237503,66.034630 183.742493,65.997238 
	C185.108307,66.136711 186.249786,66.103325 187.217422,66.497101 
	C189.459549,67.409538 192.049728,67.954720 191.362503,71.595558 
	C191.072479,73.132088 192.039139,74.905823 192.724792,77.120735 
	C193.043167,78.118057 193.071304,78.566383 193.099426,79.014702 
	C193.084106,79.192276 193.068771,79.369858 192.710083,79.654556 
	C189.329529,75.758415 186.292297,71.755135 183.255066,67.751862 
	C183.143951,67.381523 183.032822,67.011192 182.877899,66.353943 
M187.603119,68.512405 
	C187.603119,68.512405 187.480469,68.589310 187.603119,68.512405 
z"/>
<path fill="#FCDCD8" opacity="1.000000" stroke="none" 
	d="
M65.143661,315.943481 
	C72.603897,313.638306 80.455109,311.412720 88.688965,309.222595 
	C88.349052,310.152496 87.786385,311.580841 86.877487,311.853027 
	C81.721634,313.397034 76.509674,314.783691 71.257843,315.960815 
	C69.436935,316.368958 67.447235,316.024017 65.143661,315.943481 
z"/>
<path fill="#BB4748" opacity="1.000000" stroke="none" 
	d="
M183.136200,67.867210 
	C186.292297,71.755135 189.329529,75.758415 192.666687,79.918365 
	C192.990997,80.402863 193.123459,80.678810 193.640564,81.317383 
	C194.606873,82.498169 195.296585,83.264450 195.986282,84.030731 
	C196.080383,84.366829 196.174469,84.702934 196.212860,85.422729 
	C196.157166,85.806435 195.937119,86.047272 195.664185,85.900803 
	C194.627167,85.477386 193.863098,85.200439 193.064331,84.564972 
	C192.414459,83.298180 191.776535,82.404381 191.187958,81.479187 
	C188.377716,77.061737 185.580856,72.635765 182.779236,68.212822 
	C182.779236,68.212822 183.017349,67.982559 183.136200,67.867210 
z"/>
<path fill="#F3FCF6" opacity="1.000000" stroke="none" 
	d="
M219.671722,355.049988 
	C222.133026,356.241089 224.250412,357.480560 226.683304,358.865479 
	C224.622452,359.565430 221.996918,361.013794 219.935287,360.439148 
	C217.566849,359.778961 215.685623,357.328552 219.671722,355.049988 
z"/>
<path fill="#FBDEDB" opacity="1.000000" stroke="none" 
	d="
M340.826752,98.868744 
	C335.291412,100.777138 329.542389,102.397888 323.395081,103.952560 
	C325.782166,100.373535 330.185760,100.570717 333.905518,99.292000 
	C335.977936,98.579582 338.366821,98.787804 340.826752,98.868744 
z"/>
<path fill="#FAFBF8" opacity="1.000000" stroke="none" 
	d="
M299.798737,107.722832 
	C296.560822,109.228851 293.120422,110.455887 289.335205,111.813614 
	C290.134155,107.225723 294.405670,105.413155 299.798737,107.722832 
z"/>
<path fill="#FCDCD8" opacity="1.000000" stroke="none" 
	d="
M37.181580,323.466858 
	C41.775772,321.847717 46.535336,320.502045 51.680374,319.207794 
	C47.673088,322.439697 43.088280,324.989410 37.181580,323.466858 
z"/>
<path fill="#FBDEDB" opacity="1.000000" stroke="none" 
	d="
M201.995895,90.994797 
	C202.108292,90.680153 202.300171,90.425369 202.786682,90.119324 
	C203.490280,90.576164 203.978729,91.144119 204.704910,91.871147 
	C205.608932,94.157066 206.275208,96.283913 206.880493,98.795151 
	C205.452316,97.507637 204.085129,95.835739 202.408951,94.035385 
	C202.099960,93.906937 202.121140,93.910423 202.098877,93.652039 
	C201.995560,93.059776 201.914505,92.725906 201.892059,92.044823 
	C201.965744,91.463333 201.980820,91.229065 201.995895,90.994797 
z"/>
<path fill="#FBDEDB" opacity="1.000000" stroke="none" 
	d="
M312.387329,106.912918 
	C314.074493,105.913773 316.151123,104.958252 318.616852,103.984062 
	C319.805511,103.970856 320.605042,103.976318 321.800140,104.046051 
	C319.056061,105.059052 315.916412,106.007797 312.387329,106.912918 
z"/>
<path fill="#FCDCD8" opacity="1.000000" stroke="none" 
	d="
M129.257141,299.899475 
	C126.448425,300.477112 123.895020,300.937042 121.134872,301.102966 
	C124.033333,299.883820 127.138535,298.958740 130.627945,298.095276 
	C130.512253,298.698547 130.012360,299.240173 129.257141,299.899475 
z"/>
<path fill="#FCDCD8" opacity="1.000000" stroke="none" 
	d="
M56.175190,317.688538 
	C57.086742,317.422180 57.753223,317.313629 58.753857,317.262695 
	C58.797546,320.880035 56.582790,320.153107 54.151497,319.139954 
	C54.596786,318.510742 55.263454,318.178558 56.175190,317.688538 
z"/>
<path fill="#FCEBEA" opacity="1.000000" stroke="none" 
	d="
M305.467041,347.986328 
	C306.048889,347.590057 306.626984,347.493042 307.205078,347.395996 
	C307.199982,347.803711 307.194855,348.211426 307.189758,348.619141 
	C306.614288,348.507965 306.038788,348.396759 305.467041,347.986328 
z"/>
<path fill="#FAEEEC" opacity="1.000000" stroke="none" 
	d="
M158.470001,299.986633 
	C159.050125,299.591614 159.626572,299.494965 160.203003,299.398285 
	C160.197800,299.804749 160.192596,300.211182 160.187393,300.617645 
	C159.613693,300.506744 159.039993,300.395844 158.470001,299.986633 
z"/>
<path fill="#FAE7E3" opacity="1.000000" stroke="none" 
	d="
M196.002563,83.652908 
	C195.296585,83.264450 194.606873,82.498169 193.851685,81.418259 
	C194.275162,81.071579 194.764114,81.038528 195.620224,81.006897 
	C195.997879,81.763908 196.008362,82.519501 196.002563,83.652908 
z"/>
<path fill="#FBFBF8" opacity="1.000000" stroke="none" 
	d="
M34.688515,92.035431 
	C34.972672,92.446114 34.964321,92.894974 34.905396,93.677078 
	C34.377541,93.670631 33.900253,93.330933 33.422966,92.991234 
	C33.747311,92.685356 34.071655,92.379478 34.688515,92.035431 
z"/>
<path fill="#FBFAF9" opacity="1.000000" stroke="none" 
	d="
M193.387543,78.966629 
	C193.071304,78.566383 193.043167,78.118057 193.012329,77.332687 
	C193.231613,77.636604 193.453629,78.277580 193.387543,78.966629 
z"/>
<path fill="#FCDCD8" opacity="1.000000" stroke="none" 
	d="
M136.106522,296.990204 
	C136.662292,296.602966 137.482483,296.295868 138.646698,296.030670 
	C138.498184,296.394867 138.005630,296.717163 137.211838,297.114288 
	C136.730713,297.149567 136.550812,297.109985 136.106522,296.990204 
z"/>
<path fill="#FAE7E3" opacity="1.000000" stroke="none" 
	d="
M192.399597,65.729721 
	C192.554321,65.853706 192.575989,66.068604 192.597656,66.283508 
	C192.487259,66.129219 192.376892,65.974937 192.399597,65.729721 
z"/>
<path fill="#FAE7E3" opacity="1.000000" stroke="none" 
	d="
M184.231018,63.857265 
	C184.001099,63.560955 183.999756,63.126060 183.998199,62.365753 
	C184.151840,62.599789 184.305710,63.159233 184.231018,63.857265 
z"/>
<path fill="#FCDCD8" opacity="1.000000" stroke="none" 
	d="
M61.249184,317.021729 
	C61.452747,316.728027 61.943123,316.471375 62.722630,316.255157 
	C62.519836,316.549988 62.027916,316.804382 61.249184,317.021729 
z"/>
<path fill="#FAEEEC" opacity="1.000000" stroke="none" 
	d="
M194.447235,328.533752 
	C194.412033,328.475464 194.482437,328.592072 194.447235,328.533752 
z"/>
<path fill="#FCDCD8" opacity="1.000000" stroke="none" 
	d="
M36.476051,325.453644 
	C36.522087,325.427124 36.430019,325.480164 36.476051,325.453644 
z"/>
<path fill="#FCDCD8" opacity="1.000000" stroke="none" 
	d="
M132.916565,297.852264 
	C132.944946,297.624390 133.226990,297.446381 133.763702,297.322205 
	C133.735672,297.551361 133.452957,297.726715 132.916565,297.852264 
z"/>
<path fill="#FBDEDB" opacity="1.000000" stroke="none" 
	d="
M349.546082,91.473694 
	C349.575348,91.523697 349.516785,91.423691 349.546082,91.473694 
z"/>
<path fill="#E41D24" opacity="1.000000" stroke="none" 
	d="
M182.465424,68.102570 
	C185.580856,72.635765 188.377716,77.061737 191.187958,81.479187 
	C191.776535,82.404381 192.414459,83.298180 193.156250,84.877594 
	C194.199036,86.687584 195.115219,87.826424 196.082596,89.207458 
	C196.133804,89.449654 196.236450,89.933990 196.000275,90.094345 
	C196.942963,93.108131 198.558426,95.202324 202.121140,93.910423 
	C202.121140,93.910423 202.099960,93.906937 202.112976,93.893036 
	C202.243927,95.492073 201.783951,97.504570 202.576584,98.650993 
	C206.717148,104.639519 211.227158,110.371048 215.487778,116.279160 
	C216.558563,117.763977 217.184357,119.569702 217.667694,121.655823 
	C216.686844,122.685165 216.052917,123.286636 215.418991,123.888107 
	C215.876617,124.187462 216.334244,124.486816 216.791870,124.786171 
	C217.195618,123.858498 217.599365,122.930832 218.003128,122.003166 
	C219.300308,122.589935 221.083954,122.822014 221.813522,123.822639 
	C225.723831,129.185699 231.086517,130.768295 237.109756,129.354980 
	C247.310394,126.961449 257.271118,123.414314 267.548004,121.520531 
	C275.023315,120.143013 282.037720,116.477356 290.170288,117.519684 
	C293.095337,117.894592 296.335541,114.238251 299.675873,113.228897 
	C311.429413,109.677307 323.136749,105.622810 335.168121,103.479088 
	C341.832489,102.291634 347.826508,99.636307 354.624817,98.533539 
	C354.999512,171.374069 354.981659,243.811295 355.084473,316.248322 
	C355.087677,318.505707 356.339203,320.761353 357.008789,323.017792 
	C350.724823,324.686249 344.437714,326.343018 338.158875,328.030365 
	C336.297028,328.530670 334.465973,329.144684 332.607452,329.658234 
	C328.509064,330.790588 324.390411,331.850952 320.303192,333.021698 
	C317.865845,333.719818 315.494904,334.650970 313.054871,335.338135 
	C307.346649,336.945679 301.615326,338.471100 295.892426,340.026337 
	C286.189514,342.663208 276.485870,345.297394 266.024323,347.965759 
	C264.006317,347.343719 262.808685,346.458862 261.469696,346.096283 
	C260.050110,345.711945 258.372894,345.415527 257.031525,345.820435 
	C255.284225,346.347900 253.553482,347.379059 252.192902,348.610321 
	C250.879776,349.798737 250.046127,351.516968 249.001831,353.002441 
	C242.236633,353.328583 235.473251,353.727692 228.704132,353.897644 
	C227.751602,353.921570 226.459351,353.049347 225.854706,352.209900 
	C222.344482,347.336700 218.992950,342.349152 215.151611,336.892212 
	C206.038864,324.428284 197.359238,312.474670 188.687546,300.515289 
	C186.261368,297.169281 184.220184,293.452332 181.361938,290.532440 
	C176.836319,285.909241 170.739929,286.867096 164.976105,287.090881 
	C161.631607,287.749573 158.287125,288.408264 154.047729,289.044739 
	C149.290314,289.022552 145.427826,289.022552 141.028915,289.022552 
	C142.396362,290.849152 143.193756,291.914276 143.991165,292.979431 
	C137.240738,294.559814 130.490295,296.140228 123.086044,297.878021 
	C121.950546,298.336029 121.468872,298.636627 120.987198,298.937256 
	C120.245285,298.967316 119.503380,298.997406 118.191841,298.769501 
	C116.747002,299.012634 115.871788,299.513733 114.996574,300.014832 
	C113.909233,300.353485 112.821899,300.692139 111.207031,300.790344 
	C109.454193,301.034851 108.228882,301.519745 107.003571,302.004639 
	C107.003571,302.004639 107.000000,302.000000 106.701714,302.017456 
	C105.930542,302.354065 105.457657,302.673157 104.984772,302.992249 
	C99.599907,304.344635 94.215050,305.697021 88.201691,306.769928 
	C85.282166,306.515198 81.767242,301.853882 81.120850,308.175659 
	C79.011978,309.102814 76.903114,310.029968 74.198730,311.077698 
	C73.310905,311.376678 73.106888,311.627045 72.991180,311.949280 
	C72.553490,311.975555 72.115807,312.001831 71.127556,311.755005 
	C65.127640,308.257690 61.931881,312.958588 57.996727,315.059265 
	C57.589474,315.076263 57.182220,315.093262 56.063553,315.072357 
	C49.572025,313.352875 43.791912,311.671265 38.011799,309.989685 
	C37.998543,308.926788 37.985287,307.863922 38.344254,306.364777 
	C40.142887,305.619019 41.569305,305.309509 43.418907,304.997498 
	C48.145271,305.194061 46.960812,301.953949 46.963707,299.736481 
	C47.013500,261.585907 46.999538,223.435226 46.999538,185.284576 
	C46.999535,162.960602 46.981895,140.636612 47.020069,118.312714 
	C47.025276,115.265625 46.778728,112.554932 42.999908,111.534180 
	C43.000233,106.379135 43.000652,101.690231 43.321877,96.959396 
	C44.097950,96.278671 44.553211,95.639862 45.472099,95.000641 
	C49.908733,94.872528 53.881741,94.744835 58.967339,94.581375 
	C56.456104,92.230934 55.175087,91.031944 53.894066,89.832947 
	C61.133430,87.642052 68.343903,85.349220 75.619682,83.286797 
	C84.164833,80.864563 92.748352,78.571373 101.348053,76.349266 
	C116.325294,72.479256 131.338715,68.749184 146.313705,64.870636 
	C151.741013,63.464958 157.228592,62.138660 162.459229,60.167366 
	C168.437424,57.914333 173.099899,59.366360 177.330063,63.725403 
	C178.820374,65.261124 180.537842,66.576393 182.465424,68.102570 
z"/>
<path fill="#E51B27" opacity="1.000000" stroke="none" 
	d="
M358.984222,97.954857 
	C361.638672,96.146835 362.978485,96.861847 363.010712,100.060173 
	C363.024109,101.391060 363.018280,102.722153 363.018311,104.053154 
	C363.019531,171.268799 363.006378,238.484451 363.060394,305.700043 
	C363.063324,309.318634 363.798157,312.933960 363.859497,316.556396 
	C363.888062,318.243744 363.119415,319.944611 361.982056,321.770966 
	C360.501709,319.764679 359.099182,317.627838 359.095642,315.488708 
	C358.976288,242.977554 358.989868,170.466187 358.984222,97.954857 
z"/>
<path fill="#E31E1E" opacity="1.000000" stroke="none" 
	d="
M358.585938,97.962273 
	C358.989868,170.466187 358.976288,242.977554 359.095642,315.488708 
	C359.099182,317.627838 360.501709,319.764679 361.649567,321.962006 
	C360.626038,322.353577 359.204895,322.685730 357.396271,323.017853 
	C356.339203,320.761353 355.087677,318.505707 355.084473,316.248322 
	C354.981659,243.811295 354.999512,171.374069 354.998413,98.468170 
	C356.060913,97.989532 357.124268,97.979614 358.585938,97.962273 
z"/>
<path fill="#C33238" opacity="1.000000" stroke="none" 
	d="
M165.233505,287.355957 
	C170.739929,286.867096 176.836319,285.909241 181.361938,290.532440 
	C184.220184,293.452332 186.261368,297.169281 188.687546,300.515289 
	C197.359238,312.474670 206.038864,324.428284 214.873230,336.681152 
	C214.403839,337.247009 213.776672,337.515839 212.980301,338.094177 
	C208.746994,333.010468 204.682907,327.617218 200.335815,322.035583 
	C193.199677,312.327576 186.406479,302.763977 179.463348,293.310486 
	C176.763596,289.634583 173.056168,287.743042 167.963989,288.401398 
	C166.894058,288.126160 166.192490,287.873566 165.233505,287.355957 
z"/>
<path fill="#D62123" opacity="1.000000" stroke="none" 
	d="
M249.396820,352.954956 
	C250.046127,351.516968 250.879776,349.798737 252.192902,348.610321 
	C253.553482,347.379059 255.284225,346.347900 257.031525,345.820435 
	C258.372894,345.415527 260.050110,345.711945 261.469696,346.096283 
	C262.808685,346.458862 264.006317,347.343719 265.644531,348.012085 
	C260.612579,349.652771 255.202194,351.280121 249.396820,352.954956 
z"/>
<path fill="#FBDEDB" opacity="1.000000" stroke="none" 
	d="
M206.874893,99.504791 
	C212.525620,100.127541 213.403549,105.006905 214.970200,109.690338 
	C212.276794,106.663704 209.613129,103.251740 206.874893,99.504791 
z"/>
<path fill="#FBDEDB" opacity="1.000000" stroke="none" 
	d="
M217.877502,114.464775 
	C218.854767,115.241264 219.892151,116.336159 220.865463,117.813431 
	C219.846802,117.058273 218.892197,115.920723 217.877502,114.464775 
z"/>
<path fill="#FBDEDB" opacity="1.000000" stroke="none" 
	d="
M214.944229,110.371941 
	C215.617065,110.803955 216.315277,111.553909 216.996033,112.666878 
	C216.308929,112.249893 215.639267,111.469887 214.944229,110.371941 
z"/>
<path fill="#FBDEDB" opacity="1.000000" stroke="none" 
	d="
M220.831390,118.499359 
	C221.514908,118.913605 222.249557,119.640053 222.939941,120.743210 
	C222.224625,120.350464 221.553589,119.581009 220.831390,118.499359 
z"/>
<path fill="#FBDEDB" opacity="1.000000" stroke="none" 
	d="
M217.009735,113.281097 
	C217.243988,113.226593 217.520111,113.437187 217.830063,113.915215 
	C217.593140,113.970505 217.322372,113.758354 217.009735,113.281097 
z"/>
<path fill="#D7222A" opacity="1.000000" stroke="none" 
	d="
M42.995728,305.000000 
	C41.569305,305.309509 40.142887,305.619019 38.349228,305.966187 
	C37.668564,304.064789 37.082779,302.125916 37.081245,300.186615 
	C37.033058,239.342224 37.037033,178.497803 37.067204,117.653397 
	C37.068012,116.023544 37.446598,114.393883 38.162643,112.414352 
	C40.114925,112.711548 41.553566,113.358521 42.993683,114.473579 
	C42.995350,178.294449 42.995537,241.647217 42.995728,305.000000 
z"/>
<path fill="#D7222A" opacity="1.000000" stroke="none" 
	d="
M37.995308,310.445740 
	C43.791912,311.671265 49.572025,313.352875 55.757835,315.073669 
	C56.117477,315.521484 56.071423,315.930023 55.988972,316.644897 
	C53.885803,317.267517 51.819031,317.583893 49.362144,317.538055 
	C47.140919,313.195740 44.346088,313.038239 39.151260,317.058624 
	C42.078850,317.406708 44.542896,317.699677 47.006950,317.992676 
	C44.281654,318.764771 41.556355,319.536865 37.978817,320.550385 
	C37.978817,316.655914 37.978817,313.778870 37.995308,310.445740 
z"/>
<path fill="#DD2021" opacity="1.000000" stroke="none" 
	d="
M42.992203,114.005493 
	C41.553566,113.358521 40.114925,112.711548 38.331413,112.032898 
	C37.985859,107.312988 37.985172,102.624763 38.346733,97.435432 
	C40.139679,96.956657 41.570374,96.978989 43.001072,97.001320 
	C43.000652,101.690231 43.000233,106.379135 42.999649,111.868332 
	C42.997059,113.114250 42.994633,113.559868 42.992203,114.005493 
z"/>
<path fill="#D92121" opacity="1.000000" stroke="none" 
	d="
M53.481255,89.863449 
	C55.175087,91.031944 56.456104,92.230934 58.967339,94.581375 
	C53.881741,94.744835 49.908733,94.872528 45.095184,94.999535 
	C43.168888,94.334839 42.083134,93.670830 40.997375,93.006821 
	C45.021065,91.969193 49.044754,90.931572 53.481255,89.863449 
z"/>
<path fill="#E41D24" opacity="1.000000" stroke="none" 
	d="
M47.334671,317.996765 
	C44.542896,317.699677 42.078850,317.406708 39.151260,317.058624 
	C44.346088,313.038239 47.140919,313.195740 48.971333,317.557983 
	C48.534561,317.960327 48.098480,317.980591 47.334671,317.996765 
z"/>
<path fill="#D7222A" opacity="1.000000" stroke="none" 
	d="
M40.612244,93.003761 
	C42.083134,93.670830 43.168888,94.334839 44.631557,94.999954 
	C44.553211,95.639862 44.097950,96.278671 43.321877,96.959396 
	C41.570374,96.978989 40.139679,96.956657 38.362930,96.969887 
	C38.753624,95.670532 39.490368,94.335617 40.612244,93.003761 
z"/>
<path fill="#FBE6E3" opacity="1.000000" stroke="none" 
	d="
M69.320938,82.794601 
	C70.488220,82.182220 72.011932,81.610321 73.948387,81.097458 
	C72.799873,81.716034 71.238617,82.275566 69.320938,82.794601 
z"/>
<path fill="#FBE6E3" opacity="1.000000" stroke="none" 
	d="
M148.262192,61.696854 
	C148.186188,61.364555 148.446060,61.178352 149.034592,61.117134 
	C149.026138,61.327927 148.771072,61.528202 148.262192,61.696854 
z"/>
<path fill="#FFFFFF" opacity="1.000000" stroke="none" 
	d="
M243.391968,121.465454 
	C242.941666,121.349251 242.668472,121.063560 242.395279,120.777863 
	C242.513626,120.664810 242.631958,120.551765 242.750305,120.438713 
	C243.023224,120.724457 243.296143,121.010208 243.391968,121.465454 
z"/>
<path fill="#D7222A" opacity="1.000000" stroke="none" 
	d="
M58.415092,315.059509 
	C61.931881,312.958588 65.127640,308.257690 70.798737,311.761719 
	C66.958145,313.047607 62.895802,314.053680 58.415092,315.059509 
z"/>
<path fill="#D12329" opacity="1.000000" stroke="none" 
	d="
M144.338989,292.849609 
	C143.193756,291.914276 142.396362,290.849152 141.028915,289.022552 
	C145.427826,289.022552 149.290314,289.022552 153.626129,289.051147 
	C150.961914,290.293060 147.824356,291.506409 144.338989,292.849609 
z"/>
<path fill="#D7222A" opacity="1.000000" stroke="none" 
	d="
M81.456940,308.182678 
	C81.767242,301.853882 85.282166,306.515198 87.804413,306.781128 
	C85.954765,307.444427 83.873894,307.817047 81.456940,308.182678 
z"/>
<path fill="#D12329" opacity="1.000000" stroke="none" 
	d="
M115.335625,300.019287 
	C115.871788,299.513733 116.747002,299.012634 117.820534,298.773010 
	C117.237465,299.364258 116.456070,299.693970 115.335625,300.019287 
z"/>
<path fill="#D12329" opacity="1.000000" stroke="none" 
	d="
M107.369606,302.011017 
	C108.228882,301.519745 109.454193,301.034851 110.860199,300.798981 
	C109.939148,301.371155 108.837395,301.694275 107.369606,302.011017 
z"/>
<path fill="#D12329" opacity="1.000000" stroke="none" 
	d="
M121.287491,298.937744 
	C121.468872,298.636627 121.950546,298.336029 122.731712,298.028931 
	C122.550056,298.327728 122.068916,298.632965 121.287491,298.937744 
z"/>
<path fill="#D12329" opacity="1.000000" stroke="none" 
	d="
M105.285965,302.983734 
	C105.457657,302.673157 105.930542,302.354065 106.703217,302.019958 
	C106.531052,302.328369 106.059097,302.651794 105.285965,302.983734 
z"/>
<path fill="#D7222A" opacity="1.000000" stroke="none" 
	d="
M73.222122,311.865845 
	C73.106888,311.627045 73.310905,311.376678 73.836533,311.116272 
	C73.948769,311.353302 73.743179,311.602661 73.222122,311.865845 
z"/>
<path fill="#BB4748" opacity="1.000000" stroke="none" 
	d="
M196.236450,89.933990 
	C196.236450,89.933990 196.133804,89.449654 196.075668,88.842697 
	C195.990723,87.506256 195.963913,86.776764 195.937119,86.047272 
	C195.937119,86.047272 196.157166,85.806435 196.262543,85.681618 
	C196.367920,85.556801 196.732346,85.620720 196.981445,85.980461 
	C197.803558,86.962868 198.376541,87.585533 198.949524,88.208206 
	C199.232330,88.684181 199.515137,89.160156 200.014740,90.063583 
	C200.349869,90.850418 200.598221,91.028221 200.976578,91.024429 
	C200.976578,91.024429 200.996918,91.008812 200.990173,91.259079 
	C200.983414,91.509346 201.004593,92.004158 200.804108,92.188385 
	C199.147888,91.559738 197.692169,90.746864 196.236450,89.933990 
z"/>
<path fill="#FAE7E3" opacity="1.000000" stroke="none" 
	d="
M198.972549,87.873505 
	C198.376541,87.585533 197.803558,86.962868 197.161514,86.022919 
	C197.726837,86.316696 198.361206,86.927757 198.972549,87.873505 
z"/>
<path fill="#FAE7E3" opacity="1.000000" stroke="none" 
	d="
M200.922607,90.807556 
	C200.598221,91.028221 200.349869,90.850418 200.224930,90.247147 
	C200.512207,90.113716 200.728989,90.309525 200.922607,90.807556 
z"/>
<path fill="#FAE7E3" opacity="1.000000" stroke="none" 
	d="
M201.004593,92.004158 
	C201.004593,92.004158 200.983414,91.509346 200.982071,91.262138 
	C201.149887,91.006760 201.319046,90.998581 201.742050,90.992599 
	C201.980820,91.229065 201.965744,91.463333 201.687775,91.941582 
	C201.424866,92.185555 201.004593,92.004158 201.004593,92.004158 
z"/>
<path fill="#FFFFFF" opacity="1.000000" stroke="none" 
	d="
M187.541794,68.550858 
	C187.480469,68.589310 187.603119,68.512405 187.541794,68.550858 
z"/>
<path fill="#C53235" opacity="1.000000" stroke="none" 
	d="
M195.664185,85.900803 
	C195.963913,86.776764 195.990723,87.506256 196.024460,88.600510 
	C195.115219,87.826424 194.199036,86.687584 193.190933,85.236115 
	C193.863098,85.200439 194.627167,85.477386 195.664185,85.900803 
z"/>
<path fill="#C53235" opacity="1.000000" stroke="none" 
	d="
M200.804108,92.188385 
	C201.004593,92.004158 201.424866,92.185555 201.629150,92.288795 
	C201.914505,92.725906 201.995560,93.059776 202.098877,93.652039 
	C198.558426,95.202324 196.942963,93.108131 196.000275,90.094345 
	C197.692169,90.746864 199.147888,91.559738 200.804108,92.188385 
z"/>
<path fill="#E51D1D" opacity="1.000000" stroke="none" 
	d="
M42.993683,114.473579 
	C42.994633,113.559868 42.997059,113.114250 42.999741,112.334465 
	C46.778728,112.554932 47.025276,115.265625 47.020069,118.312714 
	C46.981895,140.636612 46.999535,162.960602 46.999538,185.284576 
	C46.999538,223.435226 47.013500,261.585907 46.963707,299.736481 
	C46.960812,301.953949 48.145271,305.194061 43.418907,304.997498 
	C42.995537,241.647217 42.995350,178.294449 42.993683,114.473579 
z"/>
<path fill="#C53235" opacity="1.000000" stroke="none" 
	d="
M218.001556,122.001587 
	C217.599365,122.930832 217.195618,123.858498 216.791870,124.786171 
	C216.334244,124.486816 215.876617,124.187462 215.418991,123.888107 
	C216.052917,123.286636 216.686844,122.685165 217.658798,122.040344 
	C217.996826,121.997009 218.000000,122.000000 218.001556,122.001587 
z"/>
</svg>